<svg viewBox="0 0 100 100" xmlns="http://www.w3.org/2000/svg">
  <defs>
    <pattern id="sprinklesPattern" patternUnits="userSpaceOnUse" width="100" height="100">
      <!-- Background -->
      <rect width="100" height="100" fill="#A5D8D6" />
      
      <!-- Curved sprinkles with thin black outlines -->
      <!-- Pink/Coral sprinkles -->
      <path d="M15,25 Q17,27 20,28" stroke="#333333" stroke-width="0.5" fill="none" />
      <path d="M15,25 Q17,27 20,28" stroke="#E6938F" stroke-width="2.5" stroke-linecap="round" fill="none" />
      
      <path d="M68,42 Q65,45 63,49" stroke="#333333" stroke-width="0.5" fill="none" />
      <path d="M68,42 Q65,45 63,49" stroke="#E6938F" stroke-width="2.5" stroke-linecap="round" fill="none" />
      
      <path d="M32,78 Q35,76 39,75" stroke="#333333" stroke-width="0.5" fill="none" />
      <path d="M32,78 Q35,76 39,75" stroke="#E6938F" stroke-width="2.5" stroke-linecap="round" fill="none" />
      
      <path d="M83,82 Q80,85 76,86" stroke="#333333" stroke-width="0.5" fill="none" />
      <path d="M83,82 Q80,85 76,86" stroke="#E6938F" stroke-width="2.5" stroke-linecap="round" fill="none" />
      
      <!-- White sprinkles -->
      <path d="M45,15 Q48,17 52,18" stroke="#333333" stroke-width="0.5" fill="none" />
      <path d="M45,15 Q48,17 52,18" stroke="#FFFFFF" stroke-width="2.5" stroke-linecap="round" fill="none" />
      
      <path d="M85,35 Q83,32 80,30" stroke="#333333" stroke-width="0.5" fill="none" />
      <path d="M85,35 Q83,32 80,30" stroke="#FFFFFF" stroke-width="2.5" stroke-linecap="round" fill="none" />
      
      <path d="M25,62 Q29,60 32,57" stroke="#333333" stroke-width="0.5" fill="none" />
      <path d="M25,62 Q29,60 32,57" stroke="#FFFFFF" stroke-width="2.5" stroke-linecap="round" fill="none" />
      
      <path d="M58,92 Q62,90 65,87" stroke="#333333" stroke-width="0.5" fill="none" />
      <path d="M58,92 Q62,90 65,87" stroke="#FFFFFF" stroke-width="2.5" stroke-linecap="round" fill="none" />
      
      <!-- Yellow/Muted Gold sprinkles -->
      <path d="M75,12 Q72,15 70,19" stroke="#333333" stroke-width="0.5" fill="none" />
      <path d="M75,12 Q72,15 70,19" stroke="#EAD98B" stroke-width="2.5" stroke-linecap="round" fill="none" />
      
      <path d="M12,40 Q16,38 20,37" stroke="#333333" stroke-width="0.5" fill="none" />
      <path d="M12,40 Q16,38 20,37" stroke="#EAD98B" stroke-width="2.5" stroke-linecap="round" fill="none" />
      
      <path d="M52,55 Q48,57 45,60" stroke="#333333" stroke-width="0.5" fill="none" />
      <path d="M52,55 Q48,57 45,60" stroke="#EAD98B" stroke-width="2.5" stroke-linecap="round" fill="none" />
      
      <path d="M95,70 Q91,68 88,65" stroke="#333333" stroke-width="0.5" fill="none" />
      <path d="M95,70 Q91,68 88,65" stroke="#EAD98B" stroke-width="2.5" stroke-linecap="round" fill="none" />
      
      <!-- Small circular dots -->
      <circle cx="30" cy="25" r="1.5" fill="#333333" />
      <circle cx="65" cy="73" r="1.5" fill="#333333" />
      <circle cx="40" cy="45" r="1.5" fill="#333333" />
      <circle cx="83" cy="50" r="1.5" fill="#333333" />
      <circle cx="15" cy="80" r="1.5" fill="#333333" />
      <circle cx="55" cy="32" r="1.5" fill="#333333" />
      <circle cx="10" cy="10" r="1.5" fill="#333333" />
      <circle cx="90" cy="90" r="1.5" fill="#333333" />
    </pattern>
  </defs>
  
  <!-- Apply the pattern -->
  <rect width="100" height="100" fill="url(#sprinklesPattern)" />
</svg>
