<svg xmlns="http://www.w3.org/2000/svg" viewBox="0 0 100 100">
  <!-- Background -->
  <circle cx="50" cy="50" r="45" fill="#FFFFFF" stroke="#2C3E50" stroke-width="7"/>
  
  <!-- Colorful elements -->
  <circle cx="50" cy="50" r="35" fill="#FFE66D"/>
  
  <!-- Question mark -->
  <path d="M50 25c-8 0-15 6-15 14 0 1.1 0.9 2 2 2s2-0.9 2-2c0-5.5 4.5-10 10-10s10 4.5 10 10c0 3.4-1.7 6.4-4.2 8.2-3.2 2.2-5.8 5.8-5.8 10.2V65c0 1.1 0.9 2 2 2s2-0.9 2-2v-7.8c0-3 1.8-5.4 4.2-7.2 3.5-2.4 5.8-6.4 5.8-11C63 31 57 25 50 25z" fill="#2C3E50"/>
  
  <!-- Dot at bottom of question mark -->
  <circle cx="50" cy="75" r="4" fill="#2C3E50"/>
  
  <!-- Decorative stars -->
  <path d="M22 22l3 1-2 3 3-2 1 3 1-3 3 2-2-3 3-1-3-1 2-3-3 2-1-3-1 3-3-2 2 3z" fill="#FF6B6B"/>
  <path d="M75 28l3 1-2 3 3-2 1 3 1-3 3 2-2-3 3-1-3-1 2-3-3 2-1-3-1 3-3-2 2 3z" fill="#4ECDC4"/>
  <path d="M70 70l3 1-2 3 3-2 1 3 1-3 3 2-2-3 3-1-3-1 2-3-3 2-1-3-1 3-3-2 2 3z" fill="#FF6B6B"/>
  <path d="M25 65l3 1-2 3 3-2 1 3 1-3 3 2-2-3 3-1-3-1 2-3-3 2-1-3-1 3-3-2 2 3z" fill="#4ECDC4"/>
</svg>
